<svg height='100px' width='100px'  fill="#3ecc5f" xmlns="http://www.w3.org/2000/svg" xmlns:xlink="http://www.w3.org/1999/xlink" version="1.1" x="0px" y="0px" viewBox="0 0 100 100" enable-background="new 0 0 100 100" xml:space="preserve"><path fill="#3ecc5f" d="M50,11.562c-8.787,0-15.938,7.15-15.938,15.938v14.081c-4.151,0.103-7.5,3.521-7.5,7.729v29.506  c0,4.271,3.448,7.747,7.687,7.747h31.502c4.239,0,7.687-3.476,7.687-7.747V49.31c0-4.208-3.349-7.626-7.5-7.729V27.5  C65.938,18.713,58.787,11.562,50,11.562z M50,13.438c7.754,0,14.062,6.308,14.062,14.062v14.062h-5.625V27.5  c0-4.652-3.785-8.438-8.438-8.438s-8.438,3.785-8.438,8.438v14.062h-5.625V27.5C35.938,19.745,42.246,13.438,50,13.438z   M43.438,41.562V27.5c0-3.618,2.944-6.562,6.562-6.562s6.562,2.944,6.562,6.562v14.062H43.438z M71.562,49.31v29.506  c0,3.237-2.607,5.872-5.812,5.872H34.249c-3.204,0-5.812-2.635-5.812-5.872V49.31c0-3.237,2.607-5.872,5.812-5.872h31.502  C68.955,43.438,71.562,46.072,71.562,49.31z"></path><ellipse fill="#3ecc5f" cx="40.625" cy="65.938" rx="1.875" ry="2.812"></ellipse><ellipse fill="#3ecc5f" cx="59.375" cy="65.938" rx="1.875" ry="2.812"></ellipse><path fill="#3ecc5f" d="M59.375,70.625h-18.75c-0.586,0-1.137,0.274-1.492,0.74c-0.354,0.467-0.471,1.072-0.313,1.637  C38.898,73.287,40.869,80,50,80c9.133,0,11.102-6.713,11.182-6.998c0.156-0.564,0.041-1.17-0.315-1.637  C60.514,70.899,59.961,70.625,59.375,70.625z"></path></svg>